PathFileType	4	(X/Y/Z)	Patient4_TMGait_0pt4_03_right_36.trc.trc
DataRate	CameraRate	NumFrames	NumMarkers	Units	OrigDataRate	OrigDataStartFrame	OrigNumFrames
72.916666666667	72.916666666667	6	33	mm	72.916666666667	71	       141
Frame#	Time	Sacral			L.Shoulder			Chest			R.Shoulder			Neck			R.ASIS			L.ASIS			R.Thigh.Superior			R.Thigh.Lateral			R.Thigh.Inferior			R.Patella			L.Thigh.Superior			L.Thigh.Lateral			L.Thigh.Inferior			L.Patella			L.Shank.Superior			L.Shank.Lateral			L.Shank.Inferior			R.Shank.Superior			R.Shank.Lateral			R.Shank.Inferior			R.Heel			R.Midfoot.Superior			R.Midfoot.Lateral			R.Toe			L.Heel			L.Midfoot.Lateral			L.Midfoot.Superior			L.Toe			L.Elbow			L.Wrist			R.Elbow			R.Wrist			
		X1	Y1	Z1	X2	Y2	Z2	X3	Y3	Z3	X4	Y4	Z4	X5	Y5	Z5	X6	Y6	Z6	X7	Y7	Z7	X8	Y8	Z8	X9	Y9	Z9	X10	Y10	Z10	X11	Y11	Z11	X12	Y12	Z12	X13	Y13	Z13	X14	Y14	Z14	X15	Y15	Z15	X16	Y16	Z16	X17	Y17	Z17	X18	Y18	Z18	X19	Y19	Z19	X20	Y20	Z20	X21	Y21	Z21	X22	Y22	Z22	X23	Y23	Z23	X24	Y24	Z24	X25	Y25	Z25	X26	Y26	Z26	X27	Y27	Z27	X28	Y28	Z28	X29	Y29	Z29	X30	Y30	Z30	X31	Y31	Z31	X32	Y32	Z32	X33	Y33	Z33	

71	47.950000000000	863.862028200189	1001.596720991642	515.390765544028	1013.080249636407	1430.680665519753	316.664213099102	1141.080900802619	1361.870576359128	458.999698517738	1085.390761005811	1432.848040599173	645.429776868137	1022.854410800743	1491.746989457300	473.679447110238	1104.710933328471	935.136277693598	600.327459780547	1056.360104727095	960.140825075262	330.319488039078	1107.606894381873	723.912159338729	568.675984391197	1013.932165370630	624.959586929613	637.764601119404	1069.437755145038	563.883760123346	551.191182984191	1053.285504651896	477.694044456114	556.343044929378	1129.841182056812	769.040863754025	350.792687971256	1069.111537784255	639.979755500763	282.460884464585	1174.600720263687	579.414790826021	336.475117113211	1196.873700387419	514.029950302080	334.638590527593	1177.928465868627	442.082471299074	325.591746470132	1104.762847900495	314.849530658487	279.034285147636	1190.260073767001	212.717051581450	329.829633771972	1015.346843257350	392.097379144016	565.616300872435	937.170366363359	297.275794693337	634.271446356845	958.630115114359	199.399005887677	566.100670992269	806.354338002443	42.553452085965	547.418078549814	979.413935705008	95.510125535765	570.612452266903	894.269910312613	36.954083691984	616.666131488905	1101.474017568112	42.281388482804	591.191877572110	1100.326380118620	42.724260656481	373.259491364444	1171.591170373750	40.224554009380	290.987599955611	1249.382939808786	110.545657484258	310.086342514483	1379.115033142319	69.518061224551	279.647620824584	902.115051340235	1091.499081442919	221.242635333935	913.208213048516	832.865822959595	183.015749964673	1171.993770447167	1099.857946411357	766.735838922437	1393.978381710811	1035.832115638783	658.288918963412	
72	47.963714285714	865.135378404068	999.920192404025	513.754624196190	1011.485425871166	1429.045294865787	313.791855722428	1140.284171784874	1361.451859030708	455.996925594416	1084.509607129852	1432.418824570306	642.427374112336	1021.278571799278	1490.579857215972	470.552279859253	1106.443862371241	934.131380574193	598.340609660608	1057.628088677891	959.016063419130	328.490198238598	1108.916686236608	722.532302992040	566.678303611375	1014.967454714795	623.717104418828	636.042132237956	1069.851783009711	562.446038821555	549.344129380523	1052.898166262462	475.901282850497	554.351562688662	1132.237963424168	767.574381004804	349.934313679125	1070.304367624971	638.137608101976	283.180173612708	1175.516884464012	577.725640261157	337.638493506974	1196.371237712237	511.126923293475	336.723165000958	1176.495152023725	438.641907900708	327.585468825391	1100.943791018304	312.798623231039	281.004158713677	1183.619098961008	209.129586308576	333.081329129779	1013.893671176830	390.588131529023	564.048583299744	934.917453679943	296.813934678961	633.256671360568	954.674335159964	198.583353999642	565.288974064038	800.882150602994	42.655723319771	547.436737030012	973.915560215830	95.424054647378	570.394849188563	888.776256873105	36.952060766648	616.630969209812	1095.959348853197	42.159387179364	591.225708133030	1089.428156055740	41.497222597006	376.250600619118	1160.534697191690	38.542835332078	293.766243648044	1239.914206558058	106.598675210182	313.946943340207	1368.944340635049	63.047742130005	282.768374587861	903.019459099540	1088.860957438415	218.813068890941	917.312754630099	830.366207260060	180.361583195026	1170.379159061460	1099.198842381612	764.132520982562	1390.495084406317	1033.434049611160	652.940490304019	
73	47.977428571429	866.489412379321	998.316378994583	512.073176509388	1009.923431112602	1427.406145782650	310.763034638725	1139.545831609558	1361.102336652824	452.837697577568	1083.709664537469	1432.113565426074	639.254714685455	1019.769636934616	1489.471831004338	467.243755772486	1108.284001618525	933.154322345888	596.274688738325	1058.945628657275	958.014073031894	326.600584913826	1110.397896367613	721.197378194929	564.638761765023	1016.145575097997	622.505353956531	634.215827852088	1070.478408336524	561.008589705776	547.444482916597	1052.745364217054	474.071727593063	552.303385176737	1134.741133054287	766.226676088828	349.133937521401	1071.850428253588	636.637748324415	283.539717140118	1176.675131179204	576.290703322464	338.682694167878	1196.100907481452	508.498770166312	338.535909701277	1175.383567752280	435.532839569468	329.177104702619	1097.662487789504	311.068596186880	282.218479271860	1177.424277082290	205.913964551207	335.716369503659	1012.580661889590	389.121556982456	562.419952063910	932.767229501494	296.458657901732	632.215327564496	950.792784169196	197.865753169981	564.476730687944	795.437001618398	42.931854532748	547.476050903485	968.492255135878	95.381631979658	570.189634484963	883.320012284176	37.023879221148	616.583583210343	1090.486775539042	41.962760437320	591.262632180197	1079.087121964334	40.400838460393	378.440964207445	1150.089670387353	37.230272616714	295.774449810082	1230.816090539653	103.272622242387	317.114091897181	1359.287506204430	57.607869459432	285.236022298366	904.227083193744	1086.151851487514	216.180481373406	922.222268820001	827.861913137215	177.389019282495	1168.376670067740	1098.654383839580	761.725069670690	1386.442847679838	1030.357568264275	647.984796212123	
74	47.991142857143	867.887172161156	996.872435371890	510.360762723834	1008.438724668359	1425.841109116993	307.614138424776	1138.893992025323	1360.851489182862	449.548308187500	1083.051520162375	1431.982311062076	635.936780180465	1018.374055249202	1488.488846177998	463.787685904242	1110.171657173217	932.262110745614	594.136634906169	1060.243762514854	957.194422279165	324.634652411739	1111.964811806568	719.972252023883	562.566068994782	1017.390229612695	621.391616181711	632.292212652325	1071.257031250365	559.635940624590	545.504645029590	1052.811650293101	472.255518706048	550.246184568501	1137.207225047954	765.083808989419	348.335317263335	1073.663691433314	635.548111724272	283.445957330352	1178.000658153204	575.167264626435	339.424497158451	1196.058904132341	506.278670446984	339.869138635949	1174.624706992350	432.890608246371	330.243040483325	1095.050505078270	309.725361808359	282.620930689693	1171.908590563419	203.222225529059	337.639025923822	1011.387093149041	387.758219911912	560.764173068133	930.690319858379	296.270352279511	631.168451104286	946.985694941001	197.305536844984	563.689711266307	790.024116621677	43.454555060941	547.542840702607	963.169302097265	95.401631464990	570.016996424761	877.908605095768	37.203641316883	616.531055869320	1085.063610630936	41.688334072120	591.303506782784	1069.721206479888	39.510174610621	379.852607667754	1140.673288359102	36.303506479550	297.045019199285	1222.448064331176	100.697634393459	319.495671894808	1350.516598497869	53.400186969455	287.018049420516	905.748179076593	1083.473128130012	213.367728190775	927.887694449904	825.468393923485	174.142606471050	1165.996773633425	1098.248472827439	759.457264410201	1381.836267241003	1026.585476206474	643.448711060873	
75	48.004857142857	869.297169902859	995.663975166645	508.613528532824	1007.066436265472	1424.428366035926	304.384127460165	1138.348737902137	1360.728243410089	446.158136433927	1082.580083788860	1432.066626452875	632.502628061481	1017.124383219575	1487.690255894655	460.223980947738	1112.046562935302	931.514156041693	591.925686855256	1061.472758950539	956.601677880227	322.567449048970	1113.532314589769	718.923631270849	560.464257257809	1018.638896155966	620.442447562247	630.283354772132	1072.146897072114	558.395195760843	543.543544997764	1053.105827209009	470.500746321072	548.245653851485	1139.517674427446	764.220322577066	347.455137114412	1075.640424614337	634.886532260651	282.854928641999	1179.406907037957	574.368318546196	339.704937370279	1196.211268837483	504.530140069539	340.577845966497	1174.186286838747	430.771691142249	330.730674380126	1093.098409916080	308.787334474378	282.261573917668	1167.134687769936	201.116059310191	338.844557183699	1010.314588646252	386.552713826911	559.128351981317	928.669073665432	296.308652512439	630.141075859323	943.263755397683	196.958919926148	562.960397060768	784.650697486942	44.301535082850	547.643871580965	957.974404068905	95.500783258180	569.900187368487	872.549462768147	37.527730481845	616.484399102699	1079.693541970142	41.339889618612	591.348014224358	1061.502182718049	38.862537076233	380.583846894901	1132.447694861623	35.731519378155	297.678683254312	1214.965179145238	98.890828905291	321.095689267168	1342.776758502629	50.437947334710	288.149876439018	907.581334285581	1080.926852766902	210.396077425332	934.261923640736	823.304253476633	170.667855008975	1163.254845344242	1098.004033488439	757.268741058166	1376.687234653446	1022.109682254679	639.350682934505	
76	48.018571428571	870.692784040513	994.746366801948	506.805957774656	1005.832522815959	1423.237161386718	301.108524432570	1137.920172846312	1360.758039890759	442.698638760851	1082.313251832961	1432.392175677289	628.984219251223	1016.037414849600	1487.121604603332	456.594708832203	1113.852098144228	930.965225232184	589.633856268268	1062.610260402103	956.261051058508	320.372013795382	1115.031396663938	718.111372142389	558.336816751200	1019.853807776538	619.714388303685	628.205969788069	1073.138840205378	557.347086811406	541.585659369675	1053.666374164582	468.847170307243	546.378125455499	1141.590248392013	763.676608421762	346.394291565897	1077.644784404822	634.612456295802	281.785584673148	1180.784185333881	573.851965106280	339.420137505625	1196.479000195299	503.239357728095	340.611900060424	1173.967580298086	429.156141598477	330.666592724064	1091.670755303795	308.222324052524	281.290573449058	1163.022783119386	199.573483542144	339.412229827062	1009.392828101325	385.546633718472	557.567026804716	926.704802308225	296.626925513780	629.158725442312	939.651323341360	196.873412340108	562.324414611160	779.327787075785	45.549996170830	547.784658829527	952.936623783330	95.690800588272	569.861964450713	867.250256740317	38.032326151967	616.457032939678	1074.376074770965	40.928773877287	591.394297307139	1054.395255148530	38.456330751519	380.781334931979	1125.364418343406	35.451369109144	297.818303494948	1208.350636225409	97.776875992725	322.002399099151	1336.026858436612	48.584912875326	288.724253435402	909.707397687019	1078.606023205519	207.285028993830	941.297678539720	821.481534421069	167.009799755197	1160.173960147578	1097.937624241006	755.100995353958	1371.006952848642	1016.933060664889	635.702969355913	
